<svg width="9" height="8" viewBox="0 0 9 8" fill="none" xmlns="http://www.w3.org/2000/svg">
<path fill-rule="evenodd" clip-rule="evenodd" d="M6.96991 0.970036C7.10986 0.831308 7.29879 0.753232 7.49585 0.752688C7.6929 0.752145 7.88225 0.829177 8.02297 0.967131C8.16368 1.10508 8.24445 1.29288 8.2478 1.4899C8.25116 1.68693 8.17684 1.87737 8.04091 2.02004L4.04891 7.01004C3.9803 7.08393 3.8975 7.14324 3.80545 7.1844C3.71339 7.22557 3.61399 7.24775 3.51316 7.24961C3.41234 7.25148 3.31218 7.233 3.21867 7.19527C3.12516 7.15754 3.04021 7.10134 2.96891 7.03004L0.323913 4.38404C0.250227 4.31537 0.191125 4.23257 0.150133 4.14057C0.109141 4.04858 0.0870986 3.94926 0.0853218 3.84856C0.083545 3.74786 0.10207 3.64783 0.139791 3.55444C0.177512 3.46105 0.233657 3.37622 0.304875 3.305C0.376094 3.23378 0.460928 3.17763 0.554316 3.13991C0.647704 3.10219 0.747733 3.08367 0.848436 3.08544C0.949139 3.08722 1.04845 3.10926 1.14045 3.15026C1.23245 3.19125 1.31525 3.25035 1.38391 3.32404L3.47791 5.41704L6.95091 0.992036C6.95711 0.98429 6.96379 0.976942 6.97091 0.970036H6.96991Z" fill="#3D3D3D"/>
</svg>
