<svg width="45" height="45" viewBox="0 0 45 45" fill="none" xmlns="http://www.w3.org/2000/svg">
<g clip-path="url(#clip0_77_510)">
<path d="M31.0951 3.69238C34.7305 7.01932 37.0573 11.536 37.6556 16.4275C38.254 21.319 37.0845 26.2633 34.3582 30.3685C31.6319 34.4736 27.5283 37.4693 22.7877 38.8151C18.047 40.1608 12.9815 39.7681 8.50488 37.7077C10.7041 39.7363 13.3173 41.2634 16.1642 42.1837C19.0111 43.104 22.0237 43.3955 24.9942 43.0381C27.9647 42.6806 30.8223 41.6828 33.3696 40.1135C35.9169 38.5441 38.0933 36.4407 39.7485 33.9483C41.4037 31.456 42.4983 28.6341 42.9567 25.6775C43.4152 22.7209 43.2265 19.7 42.4038 16.8235C41.581 13.9469 40.1438 11.2831 38.1913 9.01609C36.2389 6.74906 33.8177 4.93275 31.0949 3.69256L31.0951 3.69238Z" fill="#21B24A" fill-opacity="0.4"/>
<path d="M22.5 0C18.0499 0 13.6998 1.3196 9.99968 3.79193C6.29957 6.26427 3.41569 9.77829 1.71272 13.8896C0.00974886 18.001 -0.435826 22.525 0.432341 26.8895C1.30051 31.2541 3.44343 35.2632 6.59011 38.4099C9.73679 41.5566 13.7459 43.6995 18.1105 44.5677C22.4751 45.4358 26.9991 44.9903 31.1104 43.2873C35.2217 41.5843 38.7357 38.7004 41.2081 35.0003C43.6804 31.3002 45 26.9501 45 22.5C45 16.5326 42.6295 10.8097 38.4099 6.5901C34.1903 2.37053 28.4674 0 22.5 0V0ZM22.5 43.2C18.4059 43.2 14.4038 41.986 10.9997 39.7114C7.59561 37.4369 4.94244 34.204 3.3757 30.4215C1.80897 26.6391 1.39904 22.477 2.19775 18.4616C2.99647 14.4462 4.96795 10.7578 7.8629 7.86289C10.7578 4.96794 14.4462 2.99646 18.4616 2.19774C22.477 1.39903 26.6391 1.80896 30.4216 3.37569C34.204 4.94243 37.4369 7.5956 39.7114 10.9997C41.986 14.4038 43.2 18.4059 43.2 22.5C43.1938 27.9881 41.0109 33.2496 37.1302 37.1302C33.2496 41.0109 27.9881 43.1938 22.5 43.2V43.2Z" fill="#21B24A"/>
<path d="M22.5001 7.2001C22.7388 7.2001 22.9677 7.10528 23.1365 6.93649C23.3053 6.76771 23.4001 6.53879 23.4001 6.3001V4.5001C23.4001 4.2614 23.3053 4.03248 23.1365 3.8637C22.9677 3.69492 22.7388 3.6001 22.5001 3.6001C22.2614 3.6001 22.0325 3.69492 21.8637 3.8637C21.6949 4.03248 21.6001 4.2614 21.6001 4.5001V6.3001C21.6001 6.53879 21.6949 6.76771 21.8637 6.93649C22.0325 7.10528 22.2614 7.2001 22.5001 7.2001Z" fill="#21B24A"/>
<path d="M22.5001 37.8C22.2614 37.8 22.0325 37.8949 21.8637 38.0637C21.6949 38.2324 21.6001 38.4614 21.6001 38.7V40.5001C21.6001 40.7387 21.6949 40.9677 21.8637 41.1364C22.0325 41.3052 22.2614 41.4001 22.5001 41.4001C22.7388 41.4001 22.9677 41.3052 23.1365 41.1364C23.3053 40.9677 23.4001 40.7387 23.4001 40.5001V38.7C23.4001 38.4614 23.3053 38.2324 23.1365 38.0637C22.9677 37.8949 22.7388 37.8 22.5001 37.8Z" fill="#21B24A"/>
<path d="M6.3001 21.6001H4.5001C4.2614 21.6001 4.03248 21.6949 3.8637 21.8637C3.69492 22.0325 3.6001 22.2614 3.6001 22.5001C3.6001 22.7388 3.69492 22.9677 3.8637 23.1365C4.03248 23.3053 4.2614 23.4001 4.5001 23.4001H6.3001C6.53879 23.4001 6.76771 23.3053 6.93649 23.1365C7.10528 22.9677 7.2001 22.7388 7.2001 22.5001C7.2001 22.2614 7.10528 22.0325 6.93649 21.8637C6.76771 21.6949 6.53879 21.6001 6.3001 21.6001Z" fill="#21B24A"/>
<path d="M40.5001 21.6001H38.7C38.4614 21.6001 38.2324 21.6949 38.0637 21.8637C37.8949 22.0325 37.8 22.2614 37.8 22.5001C37.8 22.7388 37.8949 22.9677 38.0637 23.1365C38.2324 23.3053 38.4614 23.4001 38.7 23.4001H40.5001C40.7387 23.4001 40.9677 23.3053 41.1364 23.1365C41.3052 22.9677 41.4001 22.7388 41.4001 22.5001C41.4001 22.2614 41.3052 22.0325 41.1364 21.8637C40.9677 21.6949 40.7387 21.6001 40.5001 21.6001Z" fill="#21B24A"/>
<path d="M10.4085 9.13576C10.239 8.9705 10.0112 8.87866 9.77449 8.88014C9.53777 8.88163 9.31117 8.97631 9.14378 9.14369C8.97638 9.31106 8.88166 9.53765 8.88015 9.77436C8.87863 10.0111 8.97043 10.2389 9.13567 10.4084L10.4085 11.681C10.5779 11.8462 10.8057 11.9381 11.0424 11.9366C11.2791 11.9351 11.5057 11.8404 11.6731 11.673C11.8405 11.5057 11.9352 11.2791 11.9368 11.0424C11.9383 10.8056 11.8465 10.5779 11.6812 10.4084L10.4085 9.13576Z" fill="#21B24A"/>
<path d="M34.5916 33.318C34.4228 33.1492 34.1939 33.0544 33.9552 33.0544C33.7165 33.0545 33.4875 33.1493 33.3187 33.3181C33.15 33.4869 33.0552 33.7159 33.0552 33.9546C33.0552 34.1933 33.15 34.4222 33.3188 34.591L34.5916 35.8636C34.6748 35.9489 34.7741 36.0168 34.8837 36.0635C34.9933 36.1101 35.1112 36.1346 35.2303 36.1353C35.3495 36.1361 35.4676 36.1132 35.5778 36.0679C35.688 36.0227 35.7882 35.956 35.8724 35.8718C35.9567 35.7875 36.0234 35.6874 36.0686 35.5772C36.1139 35.467 36.1368 35.3489 36.1361 35.2297C36.1353 35.1106 36.1109 34.9927 36.0643 34.8831C36.0176 34.7735 35.9497 34.6742 35.8644 34.591L34.5916 33.318Z" fill="#21B24A"/>
<path d="M10.4085 33.318L9.13567 34.591C8.97043 34.7605 8.87863 34.9883 8.88015 35.225C8.88166 35.4617 8.97638 35.6883 9.14378 35.8557C9.31117 36.023 9.53777 36.1177 9.77449 36.1192C10.0112 36.1207 10.239 36.0288 10.4085 35.8636L11.6812 34.591C11.85 34.4222 11.9449 34.1933 11.9449 33.9546C11.9449 33.7159 11.8501 33.4869 11.6813 33.3181C11.5125 33.1493 11.2836 33.0545 11.0449 33.0544C10.8062 33.0544 10.5773 33.1492 10.4085 33.318Z" fill="#21B24A"/>
<path d="M34.5916 9.13578L33.3188 10.4084C33.1535 10.5779 33.0617 10.8057 33.0633 11.0424C33.0648 11.2791 33.1595 11.5057 33.3269 11.6731C33.4943 11.8404 33.7209 11.9351 33.9576 11.9366C34.1943 11.9381 34.4221 11.8462 34.5916 11.681L35.8643 10.4084C35.9496 10.3252 36.0176 10.2259 36.0642 10.1163C36.1109 10.0066 36.1352 9.8888 36.136 9.76965C36.1367 9.65051 36.1138 9.5324 36.0686 9.42218C36.0233 9.31196 35.9566 9.21182 35.8724 9.12757C35.7881 9.04333 35.688 8.97665 35.5777 8.93141C35.4675 8.88617 35.3494 8.86327 35.2302 8.86403C35.1111 8.8648 34.9933 8.88921 34.8837 8.93586C34.774 8.98251 34.6747 9.05046 34.5916 9.13578Z" fill="#21B24A"/>
<path d="M31.5001 21.6001H23.4001V13.5001C23.4001 13.2614 23.3053 13.0325 23.1365 12.8637C22.9677 12.6949 22.7388 12.6001 22.5001 12.6001C22.2614 12.6001 22.0325 12.6949 21.8637 12.8637C21.6949 13.0325 21.6001 13.2614 21.6001 13.5001V22.5001C21.6001 22.7388 21.6949 22.9677 21.8637 23.1365C22.0325 23.3053 22.2614 23.4001 22.5001 23.4001H31.5001C31.7388 23.4001 31.9677 23.3053 32.1365 23.1365C32.3053 22.9677 32.4001 22.7388 32.4001 22.5001C32.4001 22.2614 32.3053 22.0325 32.1365 21.8637C31.9677 21.6949 31.7388 21.6001 31.5001 21.6001Z" fill="#21B24A"/>
</g>
<defs>
<clipPath id="clip0_77_510">
<rect width="45" height="45" fill="white"/>
</clipPath>
</defs>
</svg>
