<svg width="45" height="45" viewBox="0 0 45 45" fill="none" xmlns="http://www.w3.org/2000/svg">
<g clip-path="url(#clip0_77_506)">
<path d="M39.5009 19.6649C39.07 19.5411 38.6771 19.3108 38.3584 18.9953C38.0398 18.6798 37.8056 18.2892 37.6775 17.8595C37.3818 16.8835 36.9924 15.9383 36.5147 15.0371C36.3039 14.6435 36.195 14.2034 36.1982 13.7568C36.2013 13.3103 36.3163 12.8717 36.5327 12.4811L38.3885 9.13313L35.8649 6.61133L34.1729 7.55093C34.1765 7.73453 34.1999 7.91453 34.1999 8.09993C34.317 14.9021 31.7283 21.4723 27.0028 26.3665C22.2774 31.2607 15.802 34.0783 8.99993 34.1999C8.51933 34.1999 8.04953 34.1531 7.57613 34.1261L6.61133 35.8649L9.13493 38.3885L12.4829 36.5327C12.8777 36.3133 13.3219 36.1981 13.7735 36.1979C14.2154 36.1988 14.6504 36.3076 15.0407 36.5147C15.9404 36.9929 16.8844 37.3823 17.8595 37.6775C18.2892 37.8058 18.6797 38.04 18.9952 38.3586C19.3106 38.6772 19.5409 39.07 19.6649 39.5009L20.7251 43.1999H24.2747L25.3367 39.5009C25.4602 39.0704 25.69 38.6778 26.0048 38.3591C26.3196 38.0405 26.7095 37.8062 27.1385 37.6775C28.1142 37.3824 29.0589 36.9929 29.9591 36.5147C30.3494 36.3076 30.7844 36.1988 31.2263 36.1979C31.6784 36.1977 32.1231 36.3123 32.5187 36.5309L35.8667 38.3885L38.3903 35.8649L36.5327 32.5169C36.3157 32.1259 36.2003 31.6866 36.1972 31.2394C36.194 30.7922 36.3032 30.3514 36.5147 29.9573C36.993 29.0569 37.383 28.1123 37.6793 27.1367C37.808 26.7077 38.0423 26.3178 38.3609 26.003C38.6796 25.6882 39.0722 25.4584 39.5027 25.3349L43.1999 24.2747V20.7251L39.5009 19.6649Z" fill="#21B24A" fill-opacity="0.4"/>
<path d="M43.6968 18.9936L39.996 17.9334C39.8545 17.8921 39.7256 17.8159 39.6211 17.7118C39.5167 17.6077 39.4401 17.479 39.3984 17.3376C39.0689 16.2506 38.6349 15.1981 38.1024 14.1948C38.0322 14.0654 37.9957 13.9204 37.9964 13.7731C37.997 13.6259 38.0347 13.4812 38.106 13.3524L39.9636 10.008C40.153 9.66603 40.226 9.2717 40.1714 8.8846C40.1169 8.4975 39.9378 8.13869 39.6612 7.8624L37.1394 5.337C36.8629 5.06006 36.5037 4.88087 36.1161 4.82662C35.7286 4.77237 35.3339 4.84602 34.992 5.0364L31.644 6.894C31.5161 6.96465 31.3725 7.00181 31.2264 7.002C31.0787 7.00104 30.9335 6.96396 30.8034 6.894C29.8009 6.36111 28.749 5.92707 27.6624 5.598C27.5215 5.55645 27.3932 5.48035 27.2891 5.37662C27.1851 5.27288 27.1086 5.1448 27.0666 5.004L26.0046 1.305C25.8972 0.929437 25.6705 0.59901 25.3588 0.363597C25.0471 0.128185 24.6672 0.000564545 24.2766 2.78137e-07H20.7252C20.334 -0.000217146 19.9533 0.127043 19.6409 0.362514C19.3284 0.597985 19.1012 0.928845 18.9936 1.305L17.9334 5.0022C17.8919 5.14367 17.8157 5.27248 17.7116 5.37688C17.6075 5.48127 17.4789 5.55792 17.3376 5.5998C16.2511 5.92902 15.1991 6.36306 14.1966 6.8958C14.0665 6.96583 13.9213 7.00292 13.7736 7.0038C13.6269 7.00383 13.4826 6.96667 13.3542 6.8958L10.008 5.0346C9.6663 4.84466 9.27201 4.77125 8.88485 4.82549C8.49769 4.87973 8.13875 5.05867 7.8624 5.3352L5.3388 7.8606C5.06183 8.13702 4.88248 8.49617 4.82792 8.88365C4.77335 9.27113 4.84654 9.66584 5.0364 10.008L6.894 13.356C6.96442 13.4849 7.00133 13.6294 7.00133 13.7763C7.00133 13.9232 6.96442 14.0677 6.894 14.1966C6.36117 15.1991 5.92712 16.2511 5.598 17.3376C5.55643 17.4788 5.48011 17.6073 5.37602 17.7114C5.27194 17.8155 5.14341 17.8918 5.0022 17.9334L1.3032 18.9954C0.927972 19.1031 0.597944 19.33 0.362878 19.6417C0.127813 19.9533 0.000452285 20.333 2.78137e-07 20.7234V24.2748C-0.000217146 24.666 0.127043 25.0467 0.362514 25.3591C0.597985 25.6716 0.928845 25.8988 1.305 26.0064L5.0022 27.0666C5.14382 27.1078 5.27279 27.1839 5.37723 27.288C5.48167 27.3922 5.55821 27.5209 5.5998 27.6624C5.92935 28.7494 6.36337 29.8019 6.8958 30.8052C6.96611 30.9342 7.0028 31.0788 7.00248 31.2257C7.00217 31.3726 6.96486 31.5171 6.894 31.6458L5.0364 34.992C4.84675 35.3338 4.77351 35.728 4.82774 36.1151C4.88197 36.5022 5.06073 36.8611 5.337 37.1376L7.8606 39.6612C8.13723 39.9379 8.49648 40.1169 8.88396 40.1711C9.27143 40.2254 9.66603 40.1519 10.008 39.9618L13.356 38.106C13.4839 38.0354 13.6275 37.9983 13.7736 37.998C13.9213 37.9989 14.0665 38.036 14.1966 38.106C15.1991 38.6388 16.2511 39.0728 17.3376 39.402C17.4787 39.4437 17.6072 39.5201 17.7112 39.6242C17.8153 39.7282 17.8917 39.8567 17.9334 39.9978L18.9954 43.6968C19.1031 44.072 19.33 44.4021 19.6417 44.6371C19.9533 44.8722 20.333 44.9995 20.7234 45H24.2748C24.666 45.0002 25.0467 44.873 25.3591 44.6375C25.6716 44.402 25.8988 44.0712 26.0064 43.695L27.0648 39.9978C27.1061 39.856 27.1825 39.7269 27.287 39.6224C27.3915 39.5179 27.5206 39.4415 27.6624 39.4002C28.7488 39.0708 29.8008 38.6368 30.8034 38.1042C30.9336 38.0347 31.0788 37.9983 31.2264 37.998C31.3731 37.9976 31.5175 38.0348 31.6458 38.106L34.992 39.9636C35.334 40.153 35.7283 40.226 36.1154 40.1714C36.5025 40.1169 36.8613 39.9378 37.1376 39.6612L39.6612 37.1376C39.9378 36.8613 40.1169 36.5025 40.1714 36.1154C40.226 35.7283 40.153 35.334 39.9636 34.992L38.106 31.644C38.0351 31.5153 37.9978 31.3708 37.9975 31.2239C37.9972 31.077 38.0339 30.9324 38.1042 30.8034C38.6369 29.8002 39.0709 28.7477 39.4002 27.6606C39.4421 27.5193 39.5187 27.3907 39.6231 27.2866C39.7275 27.1825 39.8563 27.1063 39.9978 27.0648L43.6968 26.0064C44.0726 25.8985 44.4031 25.6711 44.6382 25.3587C44.8733 25.0463 45.0003 24.6658 45 24.2748V20.7252C45.0003 20.3342 44.8733 19.9537 44.6382 19.6413C44.4031 19.3289 44.0726 19.1015 43.6968 18.9936V18.9936ZM43.2 24.2748L39.501 25.3368C39.0706 25.4601 38.6782 25.6896 38.3596 26.0041C38.041 26.3186 37.8065 26.7081 37.6776 27.1368C37.382 28.1129 36.9926 29.0581 36.5148 29.9592C36.3033 30.3532 36.1941 30.7941 36.1972 31.2413C36.2004 31.6885 36.3158 32.1278 36.5328 32.5188L38.3886 35.8668L35.865 38.3886L32.517 36.5328C32.122 36.3138 31.678 36.1986 31.2264 36.198C30.7839 36.1986 30.3483 36.3073 29.9574 36.5148C29.0577 36.9929 28.1137 37.3823 27.1386 37.6776C26.709 37.8061 26.3186 38.0407 26.0035 38.3596C25.6883 38.6786 25.4584 39.0717 25.335 39.5028L24.2748 43.2H20.7252L19.6632 39.501C19.5394 39.0703 19.3093 38.6776 18.9942 38.359C18.679 38.0404 18.2889 37.8061 17.8596 37.6776C16.8845 37.3824 15.9405 36.9929 15.0408 36.5148C14.6505 36.3076 14.2155 36.1989 13.7736 36.198C13.3213 36.1979 12.8765 36.3131 12.4812 36.5328L9.1332 38.3886L6.6114 35.865L8.4672 32.517C8.6836 32.1264 8.79863 31.6878 8.80177 31.2413C8.80491 30.7948 8.69607 30.3546 8.4852 29.961C8.00765 29.0605 7.61824 28.1159 7.3224 27.1404C7.19418 26.7109 6.95997 26.3206 6.64132 26.0054C6.32267 25.6903 5.92984 25.4603 5.499 25.3368L1.8 24.2748V20.7252L5.4972 19.6632C5.92788 19.5401 6.32073 19.3108 6.63965 18.9963C6.95858 18.6818 7.19335 18.2921 7.3224 17.8632C7.6173 16.8877 8.00612 15.9431 8.4834 15.0426C8.69566 14.6485 8.80542 14.2074 8.80259 13.7598C8.79976 13.3122 8.68443 12.8726 8.4672 12.4812L6.6096 9.1332L9.135 6.6114L12.4812 8.4672C12.8767 8.68639 13.3214 8.80159 13.7736 8.802C14.2155 8.80112 14.6505 8.69237 15.0408 8.4852C15.9406 8.00746 16.8846 7.61804 17.8596 7.3224C18.2893 7.19429 18.6799 6.96014 18.9954 6.6415C19.3109 6.32286 19.5412 5.92997 19.665 5.499L20.7234 1.8H24.2748L25.3368 5.499C25.4604 5.92902 25.69 6.32113 26.0045 6.63939C26.3189 6.95765 26.7083 7.19188 27.1368 7.3206C28.1124 7.61613 29.057 8.00555 29.9574 8.4834C30.348 8.69169 30.7837 8.80108 31.2264 8.802C31.6785 8.8023 32.1232 8.68771 32.5188 8.469L35.8668 6.6114L38.3904 9.135L36.5328 12.4812C36.3164 12.8718 36.2014 13.3104 36.1982 13.7569C36.1951 14.2034 36.3039 14.6436 36.5148 15.0372C36.9924 15.9383 37.3818 16.8835 37.6776 17.8596C37.8057 18.2893 38.0399 18.6799 38.3585 18.9954C38.6771 19.3109 39.07 19.5412 39.501 19.665L43.2 20.7252V24.2748Z" fill="#21B24A"/>
<path d="M22.5001 12.6001C20.5421 12.6001 18.628 13.1807 17 14.2685C15.3719 15.3564 14.103 16.9025 13.3537 18.7115C12.6044 20.5205 12.4083 22.5111 12.7903 24.4315C13.1723 26.3519 14.1152 28.1159 15.4997 29.5005C16.8843 30.885 18.6483 31.8279 20.5687 32.2099C22.4891 32.5919 24.4797 32.3958 26.2887 31.6465C28.0977 30.8972 29.6438 29.6283 30.7317 28.0002C31.8195 26.3722 32.4001 24.4581 32.4001 22.5001C32.3972 19.8753 31.3533 17.3589 29.4973 15.5029C27.6413 13.6469 25.1249 12.603 22.5001 12.6001ZM22.5001 30.6001C20.8981 30.6001 19.332 30.125 18 29.235C16.6679 28.345 15.6297 27.0799 15.0167 25.5998C14.4036 24.1198 14.2432 22.4911 14.5557 20.9199C14.8683 19.3486 15.6397 17.9053 16.7725 16.7725C17.9053 15.6397 19.3486 14.8683 20.9199 14.5557C22.4911 14.2432 24.1198 14.4036 25.5998 15.0167C27.0799 15.6297 28.345 16.6679 29.235 18C30.125 19.332 30.6001 20.8981 30.6001 22.5001C30.6001 24.6484 29.7467 26.7086 28.2277 28.2277C26.7086 29.7467 24.6484 30.6001 22.5001 30.6001Z" fill="#21B24A"/>
</g>
<defs>
<clipPath id="clip0_77_506">
<rect width="45" height="45" fill="white"/>
</clipPath>
</defs>
</svg>
