<svg width="45" height="35" viewBox="0 0 45 35" fill="none" xmlns="http://www.w3.org/2000/svg">
<path d="M32.4 5.80005V22.9C32.4 23.1387 32.3051 23.3677 32.1363 23.5364C31.9676 23.7052 31.7386 23.8 31.5 23.8H7.19995V29.2H37.8V5.80005H32.4Z" fill="#21B24A" fill-opacity="0.4"/>
<path d="M9.9 32.8H1.8V24.7C1.8 24.4613 1.70518 24.2324 1.5364 24.0636C1.36761 23.8948 1.13869 23.8 0.9 23.8C0.661305 23.8 0.432387 23.8948 0.263604 24.0636C0.0948212 24.2324 0 24.4613 0 24.7L0 33.7C0 33.9387 0.0948212 34.1676 0.263604 34.3364C0.432387 34.5052 0.661305 34.6 0.9 34.6H9.9C10.1387 34.6 10.3676 34.5052 10.5364 34.3364C10.7052 34.1676 10.8 33.9387 10.8 33.7C10.8 33.4613 10.7052 33.2324 10.5364 33.0636C10.3676 32.8948 10.1387 32.8 9.9 32.8ZM0.9 11.2C1.13869 11.2 1.36761 11.1052 1.5364 10.9364C1.70518 10.7676 1.8 10.5387 1.8 10.3V2.20002H9.9C10.1387 2.20002 10.3676 2.1052 10.5364 1.93642C10.7052 1.76764 10.8 1.53872 10.8 1.30002C10.8 1.06133 10.7052 0.832411 10.5364 0.663628C10.3676 0.494846 10.1387 0.400024 9.9 0.400024H0.9C0.661305 0.400024 0.432387 0.494846 0.263604 0.663628C0.0948212 0.832411 0 1.06133 0 1.30002L0 10.3C0 10.5387 0.0948212 10.7676 0.263604 10.9364C0.432387 11.1052 0.661305 11.2 0.9 11.2ZM44.1 0.400024H35.1C34.8613 0.400024 34.6324 0.494846 34.4636 0.663628C34.2948 0.832411 34.2 1.06133 34.2 1.30002C34.2 1.53872 34.2948 1.76764 34.4636 1.93642C34.6324 2.1052 34.8613 2.20002 35.1 2.20002H43.2V10.3C43.2 10.5387 43.2948 10.7676 43.4636 10.9364C43.6324 11.1052 43.8613 11.2 44.1 11.2C44.3387 11.2 44.5676 11.1052 44.7364 10.9364C44.9052 10.7676 45 10.5387 45 10.3V1.30002C45 1.06133 44.9052 0.832411 44.7364 0.663628C44.5676 0.494846 44.3387 0.400024 44.1 0.400024ZM44.1 23.8C43.8613 23.8 43.6324 23.8948 43.4636 24.0636C43.2948 24.2324 43.2 24.4613 43.2 24.7V32.8H35.1C34.8613 32.8 34.6324 32.8948 34.4636 33.0636C34.2948 33.2324 34.2 33.4613 34.2 33.7C34.2 33.9387 34.2948 34.1676 34.4636 34.3364C34.6324 34.5052 34.8613 34.6 35.1 34.6H44.1C44.3387 34.6 44.5676 34.5052 44.7364 34.3364C44.9052 34.1676 45 33.9387 45 33.7V24.7C45 24.4613 44.9052 24.2324 44.7364 24.0636C44.5676 23.8948 44.3387 23.8 44.1 23.8V23.8Z" fill="#21B24A"/>
<path d="M5.3999 7.60005V27.4C5.3999 27.8774 5.58954 28.3353 5.92711 28.6728C6.26468 29.0104 6.72251 29.2001 7.1999 29.2001H37.7999C38.2773 29.2001 38.7351 29.0104 39.0727 28.6728C39.4103 28.3353 39.5999 27.8774 39.5999 27.4V7.60005C39.5999 7.12266 39.4103 6.66482 39.0727 6.32726C38.7351 5.98969 38.2773 5.80005 37.7999 5.80005H7.1999C6.72251 5.80005 6.26468 5.98969 5.92711 6.32726C5.58954 6.66482 5.3999 7.12266 5.3999 7.60005ZM37.7999 27.4H7.1999V7.60005H37.7999V27.4Z" fill="#21B24A"/>
</svg>
