<svg width="45" height="45" viewBox="0 0 45 45" fill="none" xmlns="http://www.w3.org/2000/svg">
<g clip-path="url(#clip0_77_522)">
<path fill-rule="evenodd" clip-rule="evenodd" d="M31.095 10.8918C34.5045 14.0037 36.7684 18.1717 37.5226 22.7258C38.2767 27.2799 37.4774 31.9552 35.253 36H2.83679C3.22645 37.2449 3.73269 38.4503 4.34879 39.6H40.6548C42.022 37.1099 42.8601 34.3642 43.1164 31.535C43.3728 28.7058 43.0419 25.8542 42.1445 23.1589C41.2471 20.4635 39.8026 17.9827 37.9016 15.8718C36.0005 13.7609 33.6838 12.0655 31.0968 10.8918H31.095Z" fill="#21B24A" fill-opacity="0.4"/>
<path fill-rule="evenodd" clip-rule="evenodd" d="M22.5 7.19998C18.5038 7.19339 14.5783 8.2529 11.1281 10.2692C7.67801 12.2856 4.8282 15.1858 2.87261 18.6707C0.917011 22.1556 -0.0735667 26.0991 0.00302934 30.0945C0.0796254 34.0899 1.22062 37.9926 3.30835 41.4H41.6916C43.7793 37.9926 44.9203 34.0899 44.9969 30.0945C45.0735 26.0991 44.0829 22.1556 42.1273 18.6707C40.1717 15.1858 37.3219 12.2856 33.8718 10.2692C30.4216 8.2529 26.4961 7.19339 22.5 7.19998ZM40.6548 39.6H4.34515C2.61847 36.4477 1.74231 32.9002 1.80289 29.3066C1.86347 25.7129 2.85871 22.1969 4.69066 19.1047C6.52262 16.0124 9.12815 13.4504 12.2508 11.6709C15.3735 9.89131 18.9058 8.95547 22.5 8.95547C26.0941 8.95547 29.6264 9.89131 32.7491 11.6709C35.8718 13.4504 38.4773 16.0124 40.3092 19.1047C42.1412 22.1969 43.1364 25.7129 43.197 29.3066C43.2576 32.9002 42.3814 36.4477 40.6548 39.6Z" fill="#21B24A"/>
<path d="M22.5 14.4001C22.997 14.4001 23.4 13.9972 23.4 13.5001C23.4 13.003 22.997 12.6001 22.5 12.6001C22.0029 12.6001 21.6 13.003 21.6 13.5001C21.6 13.9972 22.0029 14.4001 22.5 14.4001Z" fill="#21B24A"/>
<path d="M11.0453 19.1454C11.3968 18.7939 11.3968 18.224 11.0453 17.8726C10.6938 17.5211 10.1239 17.5211 9.77248 17.8726C9.42102 18.2241 9.42104 18.7939 9.77253 19.1454C10.124 19.4969 10.6939 19.4968 11.0453 19.1454Z" fill="#21B24A"/>
<path d="M5.4 31.5C5.89706 31.5 6.3 31.097 6.3 30.6C6.3 30.1029 5.89706 29.7 5.4 29.7C4.90294 29.7 4.5 30.1029 4.5 30.6C4.5 31.097 4.90294 31.5 5.4 31.5Z" fill="#21B24A"/>
<path d="M39.6 31.5C40.097 31.5 40.5 31.097 40.5 30.6C40.5 30.1029 40.097 29.7 39.6 29.7C39.1029 29.7 38.7 30.1029 38.7 30.6C38.7 31.097 39.1029 31.5 39.6 31.5Z" fill="#21B24A"/>
<path d="M35.2283 19.1444C35.5798 18.7929 35.5797 18.2231 35.2283 17.8716C34.8768 17.5201 34.3069 17.5202 33.9555 17.8716C33.604 18.2231 33.604 18.793 33.9555 19.1444C34.307 19.4959 34.8768 19.4959 35.2283 19.1444Z" fill="#21B24A"/>
<path fill-rule="evenodd" clip-rule="evenodd" d="M30.7727 25.5545L23.6573 32.6699C23.0775 32.3906 22.4174 32.3256 21.7942 32.4863C21.1709 32.647 20.6247 33.0232 20.2522 33.5481C19.8797 34.073 19.7051 34.7128 19.7592 35.3542C19.8132 35.9955 20.0926 36.5971 20.5477 37.0522C21.0028 37.5073 21.6044 37.7866 22.2457 37.8407C22.8871 37.8948 23.5269 37.7201 24.0518 37.3477C24.5767 36.9752 24.9529 36.4289 25.1136 35.8057C25.2743 35.1824 25.2093 34.5224 24.9299 33.9425L32.0453 26.8271C32.1313 26.7441 32.1999 26.6448 32.247 26.535C32.2942 26.4252 32.319 26.3071 32.3201 26.1876C32.3211 26.0681 32.2983 25.9496 32.2531 25.839C32.2078 25.7284 32.141 25.6279 32.0565 25.5434C31.972 25.4589 31.8715 25.3921 31.7609 25.3468C31.6503 25.3016 31.5318 25.2788 31.4123 25.2798C31.2928 25.2809 31.1747 25.3057 31.0649 25.3529C30.9551 25.4 30.8558 25.4686 30.7727 25.5545ZM22.4999 35.9999C22.3219 35.9999 22.1479 35.9472 21.9999 35.8483C21.8519 35.7494 21.7366 35.6088 21.6684 35.4444C21.6003 35.2799 21.5825 35.0989 21.6172 34.9244C21.652 34.7498 21.7377 34.5894 21.8635 34.4635C21.9894 34.3377 22.1498 34.252 22.3244 34.2172C22.4989 34.1825 22.6799 34.2003 22.8444 34.2685C23.0088 34.3366 23.1494 34.4519 23.2483 34.5999C23.3472 34.7479 23.3999 34.9219 23.3999 35.0999C23.3999 35.3386 23.3051 35.5676 23.1363 35.7363C22.9676 35.9051 22.7386 35.9999 22.4999 35.9999Z" fill="#21B24A"/>
</g>
<defs>
<clipPath id="clip0_77_522">
<rect width="45" height="45" fill="white"/>
</clipPath>
</defs>
</svg>
