<svg width="45" height="45" viewBox="0 0 45 45" fill="none" xmlns="http://www.w3.org/2000/svg">
<g clip-path="url(#clip0_77_531)">
<path d="M40.2929 16.3223L35.5373 15.5555L26.8523 23.3261L29.4749 36.9827L33.0875 38.8475L30.4523 25.1261L40.2929 16.3223ZM17.9531 31.0931L10.8359 34.7651L10.0295 38.8367L21.4955 32.9237L17.9531 31.0931Z" fill="#21B24A" fill-opacity="0.4"/>
<path d="M21.6001 2.86922L27.4483 14.2488L40.2931 16.3224L30.4525 25.1262L33.0877 38.8476L21.5533 32.8932L10.0297 38.8368L12.7405 25.1424L2.9053 16.3224L15.7573 14.2488L21.6001 2.86922ZM21.6001 2.47608e-05C21.4342 -0.00121308 21.2713 0.0439832 21.1297 0.130504C20.9882 0.217025 20.8737 0.341419 20.7991 0.489625L14.5711 12.618L0.756104 14.8482C0.589579 14.8758 0.434166 14.9497 0.307614 15.0614C0.181062 15.1731 0.0884721 15.3181 0.0404173 15.4799C-0.00763756 15.6417 -0.00922002 15.8138 0.0358506 15.9764C0.0809212 16.1391 0.170828 16.2858 0.295304 16.3998L10.7749 25.7976L7.9021 40.32C7.86859 40.4863 7.88283 40.6586 7.94316 40.8171C8.0035 40.9756 8.10746 41.1137 8.24304 41.2156C8.37861 41.3175 8.54025 41.3789 8.70927 41.3927C8.87828 41.4066 9.04776 41.3723 9.1981 41.2938L21.5533 34.9218L33.9067 41.2992C34.0566 41.3772 34.2254 41.4112 34.3938 41.3975C34.5622 41.3838 34.7233 41.3229 34.8587 41.2218C34.994 41.1207 35.0981 40.9834 35.1589 40.8258C35.2198 40.6682 35.235 40.4967 35.2027 40.3308L32.4127 25.7904L42.9049 16.4034C43.0299 16.2895 43.1203 16.1427 43.1657 15.9797C43.2111 15.8168 43.2096 15.6444 43.1615 15.4822C43.1134 15.3201 43.0206 15.1748 42.8937 15.063C42.7668 14.9511 42.611 14.8773 42.4441 14.85L28.6327 12.618L22.4011 0.487825C22.3264 0.340231 22.2121 0.216387 22.0709 0.130215C21.9297 0.0440418 21.7673 -0.00104404 21.6019 2.47608e-05H21.6001Z" fill="#21B24A"/>
</g>
<defs>
<clipPath id="clip0_77_531">
<rect width="45" height="45" fill="white"/>
</clipPath>
</defs>
</svg>
