<svg width="42" height="44" viewBox="0 0 42 44" fill="none" xmlns="http://www.w3.org/2000/svg">
<path d="M39.0869 16.2324C38.9217 16.0585 38.723 15.9198 38.5027 15.8248C38.2824 15.7299 38.0452 15.6805 37.8053 15.6798C37.6722 15.6799 37.5394 15.6944 37.4093 15.723C36.9197 15.831 36.4157 15.9354 35.9063 16.0344C35.7007 21.8167 34.9711 27.5685 33.7265 33.219C33.541 34.0129 33.0916 34.7204 32.4516 35.2256C31.8117 35.7308 31.0192 36.0039 30.2039 36H11.2607L9.04132 34.8966L9.03772 36.7056L14.8607 39.6H33.8057C34.6204 39.603 35.412 39.3296 36.0512 38.8245C36.6904 38.3194 37.1394 37.6123 37.3247 36.819C38.7135 30.4911 39.4756 24.0417 39.5999 17.5644C39.609 17.3194 39.5684 17.075 39.4806 16.8461C39.3927 16.6172 39.2594 16.4084 39.0887 16.2324H39.0869Z" fill="#21B24A" fill-opacity="0.4"/>
<path d="M37.8054 13.878C37.5413 13.8791 37.2782 13.9086 37.0206 13.9662C32.0904 15.0516 25.596 15.786 25.596 15.786C25.478 15.8097 25.358 15.8217 25.2378 15.822C24.7607 15.8211 24.3034 15.6311 23.966 15.2938C23.6287 14.9564 23.4387 14.4991 23.4378 14.022V3.74405C23.4373 3.25175 23.3398 2.76438 23.1509 2.30976C22.962 1.85514 22.6854 1.4422 22.3369 1.09451C21.9884 0.746825 21.5748 0.471214 21.1197 0.283422C20.6647 0.0956301 20.177 -0.000661543 19.6848 4.80408e-05C18.7849 -0.00443706 17.9116 0.305253 17.2157 0.875704C16.5197 1.44615 16.0446 2.2416 15.8724 3.12485C14.8788 8.35205 11.8944 15.786 8.69215 17.6022C8.46158 17.1792 8.12159 16.8259 7.70773 16.5792C7.29387 16.3326 6.82134 16.2016 6.33955 16.2H2.73955C2.02347 16.2 1.33671 16.4845 0.830362 16.9909C0.324014 17.4972 0.0395508 18.184 0.0395508 18.9V40.5C0.0395508 41.2161 0.324014 41.9029 0.830362 42.4092C1.33671 42.9156 2.02347 43.2 2.73955 43.2H6.33955C7.05564 43.2 7.74239 42.9156 8.24874 42.4092C8.75509 41.9029 9.03955 41.2161 9.03955 40.5V38.7144L14.4396 41.4H33.8076C35.0273 41.4017 36.2117 40.9909 37.1685 40.2345C38.1253 39.478 38.7982 38.4202 39.078 37.233C40.4938 30.7888 41.271 24.2206 41.3982 17.6238C41.415 17.1403 41.3347 16.6584 41.162 16.2064C40.9894 15.7545 40.7278 15.3418 40.3928 14.9927C40.0579 14.6436 39.6563 14.3653 39.2118 14.1741C38.7674 13.983 38.2891 13.8829 37.8054 13.8798V13.878ZM7.23595 40.5C7.23595 40.7387 7.14113 40.9677 6.97235 41.1364C6.80356 41.3052 6.57465 41.4 6.33595 41.4H2.73595C2.49726 41.4 2.26834 41.3052 2.09955 41.1364C1.93077 40.9677 1.83595 40.7387 1.83595 40.5V18.9C1.83595 18.6614 1.93077 18.4324 2.09955 18.2637C2.26834 18.0949 2.49726 18 2.73595 18H6.33595C6.57465 18 6.80356 18.0949 6.97235 18.2637C7.14113 18.4324 7.23595 18.6614 7.23595 18.9L7.19995 37.8L7.23775 37.818L7.23595 40.5ZM37.323 36.819C37.1378 37.6118 36.6893 38.3183 36.0509 38.8234C35.4124 39.3285 34.6216 39.6023 33.8076 39.6H14.8608L9.03775 36.7056L9.07375 19.4184C13.5954 17.3988 16.74 8.19365 17.64 3.45965C17.7349 2.98853 17.9909 2.56518 18.3641 2.26232C18.7372 1.95947 19.2042 1.79602 19.6848 1.80005C20.2015 1.79909 20.6974 2.00331 21.0636 2.36783C21.4298 2.73235 21.6363 3.22735 21.6378 3.74405V14.0202C21.6392 14.9746 22.0189 15.8894 22.6937 16.5643C23.3686 17.2391 24.2834 17.6188 25.2378 17.6202C25.4459 17.6197 25.6536 17.6017 25.8588 17.5662C26.5806 17.4834 32.6448 16.7724 37.4076 15.723C37.5376 15.6939 37.6703 15.6788 37.8036 15.678C38.0437 15.6785 38.2813 15.7277 38.5019 15.8227C38.7225 15.9177 38.9216 16.0565 39.087 16.2306C39.2577 16.4067 39.391 16.6154 39.4788 16.8444C39.5667 17.0733 39.6073 17.3176 39.5982 17.5626C39.4752 24.0405 38.7143 30.4904 37.3266 36.819H37.323Z" fill="#21B24A"/>
</svg>
